<svg version="1.2" xmlns="http://www.w3.org/2000/svg" xmlns:xlink="http://www.w3.org/1999/xlink" overflow="visible" preserveAspectRatio="none" viewBox="0 0 44 44" width="25" height="25"><g><g xmlns:default="http://www.w3.org/2000/svg">
	<g>
		<path d="M37.5,27c-1.1-1.1-3.1-1.1-4.2,0l-2.8,2.8c-1.1,1.1-3.1,1.1-4.2,0L14.8,18.5c-1.2-1.2-1.2-3.1,0-4.2l2.8-2.8    c0.6-0.6,0.9-1.3,0.9-2.1s-0.3-1.6-0.9-2.1l-6.4-6.4c-1.1-1.1-3.1-1.1-4.2,0L4.2,3.7c0,0,0,0-0.1,0.1C3.9,3.8,3.5,4.1,3.3,4.6    c-3.6,3.8-4.3,8.5-1.9,14c1.8,4.1,5.2,8.7,10.6,14c8.2,8.2,14.6,12,20.2,12c2.9,0,5.6-1.1,7.9-3.3c0.5-0.2,0.7-0.6,0.8-0.8    c0-0.1,0.1-0.1,0.1-0.1l2.8-2.8c1.2-1.2,1.2-3.1,0-4.2L37.5,27z M8.5,2.3c0.4-0.4,1-0.4,1.4,0l6.4,6.4c0.2,0.2,0.3,0.4,0.3,0.7    s-0.1,0.5-0.3,0.7l-2.1,2.1L6.3,4.4L8.5,2.3z M32.2,42.7c-5,0-11.1-3.7-18.8-11.4c-5.2-5.2-8.5-9.6-10.2-13.4    C1.1,13,1.7,9,4.9,5.8l7.8,7.8c-1.3,1.9-1.1,4.6,0.6,6.3l11.3,11.3c0.9,0.9,2.2,1.5,3.5,1.5c1,0,1.9-0.3,2.8-0.8l7.9,7.8    C36.9,41.7,34.7,42.7,32.2,42.7z M42.4,36.2l-2.1,2.1l-7.8-7.8l2.1-2.1c0.4-0.4,1-0.4,1.4,0l6.4,6.4    C42.8,35.2,42.8,35.8,42.4,36.2z M33.3,17.2h-6.1v0l1.1-1c2.9-2.6,4.7-4.5,4.7-6.9c0-1.8-1.2-3.7-4.2-3.7c-1.6,0-2.9,0.6-3.9,1.3    l0.6,1.2C26.1,7.6,27.2,7,28.4,7c2,0,2.7,1.2,2.7,2.5c0,1.9-1.6,3.6-5.1,6.7l-1.4,1.3v1.1h8.7V17.2z M42.8,13.8v-8h-2L34.7,14v1.2    H41v3.5h1.7v-3.5h1.9v-1.4H42.8z M41,9.5v4.3h-4.5v0l3.3-4.4c0.4-0.6,0.7-1.1,1.1-1.9h0.1C41.1,8.1,41,8.8,41,9.5z" style="fill: rgb(0, 149, 255);" vector-effect="non-scaling-stroke"/>
	</g>
</g></g></svg>