<svg version="1.2" xmlns="http://www.w3.org/2000/svg" xmlns:xlink="http://www.w3.org/1999/xlink" overflow="visible" preserveAspectRatio="none" viewBox="-4.503 0 57 57" width="25" height="25"><path d="M47.9,23.5C47.9,23.5,47.8,23.5,47.9,23.5c-0.1-0.2-0.2-0.4-0.4-0.6L44,19.4V5H30l-5.1-4.7c-0.5-0.5-1.5-0.4-1.9,0L18,5H4  v14.3l-3.6,3.6c-0.3,0.3-0.3,0.7-0.2,1C0.1,23.8,0,23.8,0,23.7v28.9C0,55,2,57,4.4,57h39.2c2.4,0,4.4-2,4.4-4.4V23.4  C48,23.4,47.9,23.4,47.9,23.5z M44,22.2l2,2v0.3l-2,2V22.2z M32.4,40.9L46,27.3v25.3c0,0.5-0.2,1-0.4,1.4L32.4,40.9z M24,2.2L27,5  h-6L24,2.2z M6,7h36v21.5l-18,18L6,28.6V7z M15.6,40.9L2.4,54C2.2,53.6,2,53.1,2,52.6V27.4L15.6,40.9z M4,26.6l-2-2v-0.4h0l-0.1,0  L4,22.1V26.6z M4.4,55c-0.1,0-0.1,0-0.2,0L17,42.3l6,6c0.2,0.2,0.5,0.3,0.7,0.3c0.1,0,0.2,0,0.2,0c0.1,0,0.2,0,0.2,0  c0.3,0,0.5-0.1,0.7-0.3l6.1-6L43.7,55c0,0-0.1,0-0.1,0H4.4z" style="fill: rgb(0, 149, 255);" vector-effect="non-scaling-stroke"/><g/></svg>