<svg xmlns="http://www.w3.org/2000/svg" width="115" height="22" viewBox="-1.315 -1 115 22">
<path fill="#FFFFFF" d="M-1.315-1v22h115V-1H-1.315z M20.605,8.9l-3.89,3.8l0.92,5.359c0.16,0.971-0.86,1.69-1.71,1.24l-4.82-2.53
	l-4.82,2.53c-0.86,0.46-1.88-0.27-1.71-1.24l0.92-5.359l-3.9-3.8c-0.7-0.69-0.31-1.88,0.65-2.02l5.39-0.78l2.41-4.89
	c0.43-0.88,1.68-0.87,2.11,0l2.41,4.89l5.39,0.78C20.925,7.02,21.305,8.21,20.605,8.9z M43.155,8.9l-3.9,3.8l0.92,5.359
	c0.16,0.971-0.86,1.69-1.71,1.24l-4.82-2.53l-4.82,2.53c-0.86,0.46-1.88-0.27-1.71-1.24l0.92-5.359l-3.9-3.8
	c-0.7-0.69-0.31-1.88,0.65-2.02l5.39-0.78l2.41-4.89c0.43-0.88,1.68-0.87,2.12,0l2.4,4.89l5.39,0.78
	C43.465,7.02,43.855,8.21,43.155,8.9z M65.695,8.9l-3.899,3.8l0.92,5.359c0.17,0.971-0.851,1.69-1.71,1.24l-4.82-2.53l-4.82,2.53
	c-0.86,0.46-1.88-0.27-1.71-1.24l0.92-5.359l-3.9-3.8c-0.7-0.69-0.31-1.88,0.66-2.02l5.38-0.78l2.41-4.89
	c0.44-0.88,1.69-0.87,2.12,0l2.41,4.89l5.391,0.78C66.005,7.02,66.395,8.21,65.695,8.9z M88.235,8.9l-3.899,3.8l0.92,5.359
	c0.17,0.971-0.851,1.69-1.71,1.24l-4.82-2.53l-4.82,2.53c-0.85,0.46-1.88-0.27-1.71-1.24l0.92-5.359l-3.899-3.8
	c-0.7-0.69-0.311-1.88,0.66-2.02l5.38-0.78l2.41-4.89c0.439-0.88,1.689-0.87,2.119,0l2.41,4.89l5.391,0.78
	C88.545,7.02,88.935,8.21,88.235,8.9z M110.775,8.9l-3.899,3.8l0.93,5.359c0.16,0.971-0.86,1.69-1.72,1.24l-4.82-2.53l-4.82,2.53
	c-0.85,0.46-1.87-0.27-1.71-1.24l0.92-5.359l-3.899-3.8c-0.69-0.69-0.311-1.88,0.66-2.02l5.39-0.78l2.41-4.89
	c0.43-0.88,1.68-0.87,2.109,0l2.41,4.89l5.391,0.78C111.085,7.02,111.475,8.21,110.775,8.9z"/>
</svg>
