<?xml version="1.0" encoding="utf-8"?>
<!-- Generator: Adobe Illustrator 25.3.1, SVG Export Plug-In . SVG Version: 6.00 Build 0)  -->
<svg version="1.1" id="Vrstva_1_1619102629415" xmlns="http://www.w3.org/2000/svg" xmlns:xlink="http://www.w3.org/1999/xlink"
	 x="0px" y="0px" viewBox="0 0 119 32.9" style="enable-background:new 0 0 119 32.9;" xml:space="preserve">
<g transform="translate(1, 1)">
	<g>
		<path vector-effect="non-scaling-stroke" style="fill:#EE7338;" d="M15.6,0.8C7.6,0.8,1.2,7.2,1.2,15s6.4,14.2,14.4,14.2
			S30,22.8,30,15C30,7.2,23.5,0.8,15.6,0.8z M9.5,22.4L9.9,10h2.1c0-2.3,1.6-4.2,3.5-4.2c1.9,0,3.5,1.9,3.5,4.2h2.1l0.5,12.4H9.5z"
			/>
		<path vector-effect="non-scaling-stroke" style="fill:#EE7338;" d="M15.6,6.8c-1.3,0-2.4,1.4-2.4,3.1h4.7
			C17.9,8.2,16.9,6.8,15.6,6.8z"/>
	</g>
	<path vector-effect="non-scaling-stroke" style="fill:#0095FF;" d="M42.9,17.7c0.7,0,1.2-0.2,1.6-0.6c0.4-0.4,0.6-0.9,0.6-1.5h3.3
		l0,0.1c0,1.4-0.5,2.5-1.5,3.4c-1.1,0.9-2.4,1.4-4,1.4c-2,0-3.6-0.6-4.7-1.9c-1.1-1.3-1.7-2.9-1.7-4.9v-0.4c0-2,0.6-3.6,1.7-4.9
		c1.1-1.3,2.7-1.9,4.8-1.9c1.1,0,2.1,0.2,3,0.5s1.6,0.8,2.2,1.4l0.1,3.6h-3l-0.6-2.1c-0.2-0.2-0.4-0.3-0.7-0.4
		c-0.3-0.1-0.6-0.2-0.9-0.2c-1,0-1.8,0.4-2.2,1.1c-0.4,0.7-0.6,1.7-0.6,2.9v0.4c0,1.2,0.2,2.2,0.6,2.9
		C41.2,17.3,41.9,17.7,42.9,17.7"/>
	<polygon vector-effect="non-scaling-stroke" style="fill:#0095FF;" points="48.4,3 48.4,0.8 54,0.8 54,17.7 55.8,18 55.8,20.2 
		48.6,20.2 48.6,18 50.3,17.7 50.3,3.4 	"/>
	<path vector-effect="non-scaling-stroke" style="fill:#0095FF;" d="M62.2,20.5c-2,0-3.5-0.6-4.7-1.9c-1.2-1.2-1.8-2.8-1.8-4.7v-0.5
		c0-2,0.6-3.6,1.7-4.9c1.1-1.3,2.6-1.9,4.5-1.9c1.8,0,3.3,0.5,4.3,1.6c1,1.1,1.5,2.6,1.5,4.4v2h-8.1l0,0.1c0.1,0.9,0.4,1.6,0.9,2.2
		c0.5,0.6,1.3,0.9,2.2,0.9c0.8,0,1.5-0.1,2-0.2s1.1-0.4,1.8-0.8l1,2.2c-0.6,0.4-1.3,0.8-2.2,1.1C64.3,20.3,63.3,20.5,62.2,20.5
		 M61.9,9.3c-0.7,0-1.2,0.3-1.6,0.8c-0.4,0.5-0.6,1.2-0.7,2l0,0.1h4.5v-0.3c0-0.8-0.2-1.4-0.5-1.8C63.2,9.5,62.7,9.3,61.9,9.3"/>
	<polygon vector-effect="non-scaling-stroke" style="fill:#0095FF;" points="73.8,9 72.5,9.2 74.3,15.2 74.6,16.5 74.6,16.5 
		74.9,15.2 76.7,9.2 75.4,9 75.4,6.8 81.6,6.8 81.6,9 80.4,9.1 76.3,20.2 72.8,20.2 68.8,9.1 67.6,9 67.6,6.8 73.8,6.8 	"/>
	<path vector-effect="non-scaling-stroke" style="fill:#0095FF;" d="M87.8,20.5c-2,0-3.5-0.6-4.7-1.9c-1.2-1.2-1.8-2.8-1.8-4.7v-0.5
		c0-2,0.6-3.6,1.7-4.9s2.6-1.9,4.5-1.9c1.8,0,3.3,0.5,4.3,1.6c1,1.1,1.5,2.6,1.5,4.4v2h-8.1l0,0.1c0.1,0.9,0.4,1.6,0.9,2.2
		c0.5,0.6,1.3,0.9,2.2,0.9c0.8,0,1.5-0.1,2-0.2c0.5-0.2,1.1-0.4,1.8-0.8l1,2.2c-0.6,0.4-1.3,0.8-2.2,1.1
		C89.9,20.3,88.9,20.5,87.8,20.5 M87.5,9.3c-0.7,0-1.2,0.3-1.6,0.8c-0.4,0.5-0.6,1.2-0.7,2l0,0.1h4.5v-0.3c0-0.8-0.2-1.4-0.5-1.8
		C88.8,9.5,88.2,9.3,87.5,9.3"/>
	<path vector-effect="non-scaling-stroke" style="fill:#0095FF;" d="M94,18l1.8-0.4V9.3l-2-0.4V6.8h5.4l0.2,2
		c0.3-0.7,0.7-1.2,1.2-1.6c0.5-0.4,1.1-0.6,1.8-0.6c0.2,0,0.4,0,0.6,0c0.2,0,0.4,0.1,0.5,0.1l-0.4,3.3l-1.5,0c-0.5,0-1,0.1-1.3,0.3
		c-0.4,0.2-0.6,0.5-0.8,0.9v6.5l1.8,0.4v2.2H94L94,18L94,18z"/>
	<path vector-effect="non-scaling-stroke" style="fill:#0095FF;" d="M103.1,13.4c0-2,0.6-3.6,1.7-4.9c1.1-1.3,2.7-1.9,4.7-1.9
		c2,0,3.6,0.6,4.7,1.9c1.1,1.3,1.7,2.9,1.7,4.9v0.3c0,2-0.6,3.7-1.7,4.9c-1.1,1.3-2.7,1.9-4.7,1.9c-2,0-3.6-0.6-4.7-1.9
		c-1.1-1.3-1.7-2.9-1.7-4.9L103.1,13.4L103.1,13.4z M106.7,13.6c0,1.2,0.2,2.2,0.7,3c0.4,0.7,1.1,1.1,2.1,1.1c0.9,0,1.6-0.4,2.1-1.1
		c0.4-0.7,0.7-1.7,0.7-2.9v-0.3c0-1.2-0.2-2.2-0.7-2.9c-0.4-0.8-1.1-1.1-2.1-1.1c-1,0-1.7,0.4-2.1,1.1c-0.4,0.8-0.7,1.7-0.7,2.9
		L106.7,13.6L106.7,13.6z"/>
	<path vector-effect="non-scaling-stroke" d="M79,27.1c0.2,0,0.3,0,0.4-0.1c0.1-0.1,0.1-0.2,0.1-0.4h0.8l0,0c0,0.3-0.1,0.6-0.4,0.9
		c-0.3,0.2-0.6,0.3-1,0.3c-0.5,0-0.9-0.2-1.2-0.5c-0.3-0.3-0.4-0.7-0.4-1.2V26c0-0.5,0.1-0.9,0.4-1.2c0.3-0.3,0.7-0.5,1.2-0.5
		c0.3,0,0.5,0,0.7,0.1c0.2,0.1,0.4,0.2,0.5,0.3l0,0.9h-0.7l-0.2-0.5c0,0-0.1-0.1-0.2-0.1c-0.1,0-0.1,0-0.2,0c-0.3,0-0.4,0.1-0.6,0.3
		c-0.1,0.2-0.2,0.4-0.2,0.7v0.1c0,0.3,0.1,0.5,0.1,0.7C78.6,27,78.7,27.1,79,27.1"/>
	<path vector-effect="non-scaling-stroke" d="M80.4,27.2l0.4-0.1v-3.6l-0.5-0.1v-0.5h1.4v1.9c0.1-0.2,0.2-0.3,0.4-0.4
		c0.2-0.1,0.3-0.1,0.5-0.1c0.4,0,0.6,0.1,0.8,0.3c0.2,0.2,0.3,0.6,0.3,1.1v1.4l0.4,0.1v0.5h-1.8v-0.5l0.4-0.1v-1.4
		c0-0.3,0-0.4-0.1-0.6c-0.1-0.1-0.2-0.2-0.4-0.2c-0.1,0-0.2,0-0.3,0.1c-0.1,0-0.2,0.1-0.2,0.2v1.8l0.4,0.1v0.5h-1.8L80.4,27.2
		L80.4,27.2z"/>
	<path vector-effect="non-scaling-stroke" d="M87.8,25l-0.3,0l-1.3,3.3c-0.1,0.2-0.2,0.4-0.4,0.6c-0.2,0.2-0.4,0.2-0.7,0.2
		c-0.1,0-0.2,0-0.2,0c-0.1,0-0.1,0-0.2-0.1l0.1-0.7c0,0,0.1,0,0.1,0c0,0,0.1,0,0.1,0c0.2,0,0.3,0,0.4-0.1c0.1-0.1,0.1-0.2,0.2-0.3
		l0.1-0.3L84.4,25L84.1,25v-0.5h1.7V25L85.4,25l0.5,1.3l0,0.2l0,0l0.5-1.6L86.1,25v-0.5h1.7C87.8,24.4,87.8,25,87.8,25z"/>
	<path vector-effect="non-scaling-stroke" d="M89.1,23.6v0.8h0.6V25h-0.6v1.7c0,0.1,0,0.2,0.1,0.3s0.1,0.1,0.2,0.1
		c0.1,0,0.1,0,0.2,0s0.1,0,0.2,0l0.1,0.7c-0.1,0-0.2,0.1-0.3,0.1c-0.1,0-0.2,0-0.3,0c-0.3,0-0.6-0.1-0.7-0.3
		c-0.2-0.2-0.3-0.4-0.3-0.8V25h-0.5v-0.6h0.5v-0.8L89.1,23.6L89.1,23.6z"/>
	<path vector-effect="non-scaling-stroke" d="M89.9,27.2l0.4-0.1V25L89.8,25v-0.5h1.3l0,0.5c0.1-0.2,0.2-0.3,0.3-0.4
		c0.1-0.1,0.3-0.1,0.4-0.1c0,0,0.1,0,0.2,0c0.1,0,0.1,0,0.1,0l-0.1,0.8l-0.4,0c-0.1,0-0.2,0-0.3,0.1c-0.1,0.1-0.2,0.1-0.2,0.2v1.6
		l0.4,0.1v0.5h-1.8L89.9,27.2L89.9,27.2z"/>
	<path vector-effect="non-scaling-stroke" d="M95.8,25l-0.3,0l-1.3,3.3c-0.1,0.2-0.2,0.4-0.4,0.6c-0.2,0.2-0.4,0.2-0.7,0.2
		c-0.1,0-0.2,0-0.2,0c-0.1,0-0.1,0-0.2-0.1l0.1-0.7c0,0,0.1,0,0.1,0c0,0,0.1,0,0.1,0c0.2,0,0.3,0,0.4-0.1s0.1-0.2,0.2-0.3l0.1-0.3
		L92.5,25L92.2,25v-0.5h1.7V25L93.4,25l0.5,1.3l0,0.2l0,0l0.5-1.6L94.1,25v-0.5h1.7V25z M94,23.1h1l0,0L94.1,24h-0.7L94,23.1z"/>
	<path vector-effect="non-scaling-stroke" d="M98.7,27.8c-0.5,0-0.9-0.2-1.2-0.5c-0.3-0.3-0.4-0.7-0.4-1.2v-0.1
		c0-0.5,0.1-0.9,0.4-1.2c0.3-0.3,0.7-0.5,1.1-0.5c0.5,0,0.8,0.1,1.1,0.4c0.3,0.3,0.4,0.6,0.4,1.1v0.5h-2l0,0c0,0.2,0.1,0.4,0.2,0.5
		c0.1,0.1,0.3,0.2,0.5,0.2c0.2,0,0.4,0,0.5-0.1c0.1,0,0.3-0.1,0.4-0.2l0.3,0.6c-0.1,0.1-0.3,0.2-0.5,0.3
		C99.2,27.8,98.9,27.8,98.7,27.8 M98.6,25c-0.2,0-0.3,0.1-0.4,0.2c-0.1,0.1-0.2,0.3-0.2,0.5l0,0h1.1v-0.1c0-0.2,0-0.3-0.1-0.5
		C98.9,25.1,98.8,25,98.6,25"/>
	<rect x="100.4" y="25.5" vector-effect="non-scaling-stroke" width="1.8" height="0.7"/>
	<path vector-effect="non-scaling-stroke" d="M105.2,25.6h-0.6l-0.1-0.4c-0.1-0.1-0.1-0.1-0.2-0.1c-0.1,0-0.2-0.1-0.3-0.1
		c-0.2,0-0.3,0-0.4,0.1c-0.1,0.1-0.1,0.2-0.1,0.3c0,0.1,0,0.2,0.1,0.3s0.3,0.1,0.5,0.2c0.4,0.1,0.7,0.2,0.9,0.4
		c0.2,0.2,0.3,0.4,0.3,0.7c0,0.3-0.1,0.5-0.4,0.7c-0.3,0.2-0.6,0.3-1,0.3c-0.3,0-0.5,0-0.7-0.1s-0.4-0.2-0.6-0.3l0-0.8h0.6l0.1,0.4
		c0.1,0,0.1,0.1,0.2,0.1c0.1,0,0.2,0,0.3,0c0.2,0,0.3,0,0.4-0.1c0.1-0.1,0.1-0.2,0.1-0.3c0-0.1-0.1-0.2-0.1-0.3
		c-0.1-0.1-0.3-0.1-0.5-0.2c-0.4-0.1-0.7-0.2-0.9-0.4c-0.2-0.2-0.3-0.4-0.3-0.6c0-0.3,0.1-0.5,0.4-0.7c0.2-0.2,0.6-0.3,1-0.3
		c0.3,0,0.5,0,0.8,0.1c0.2,0.1,0.4,0.2,0.6,0.3L105.2,25.6z"/>
	<path vector-effect="non-scaling-stroke" d="M105.3,27.2l0.4-0.1v-3.6l-0.5-0.1v-0.5h1.4v1.9c0.1-0.2,0.2-0.3,0.4-0.4
		c0.2-0.1,0.3-0.1,0.5-0.1c0.4,0,0.6,0.1,0.8,0.3s0.3,0.6,0.3,1.1v1.4l0.4,0.1v0.5h-1.8v-0.5l0.4-0.1v-1.4c0-0.3,0-0.4-0.1-0.6
		c-0.1-0.1-0.2-0.2-0.4-0.2c-0.1,0-0.2,0-0.3,0.1c-0.1,0-0.2,0.1-0.2,0.2v1.8l0.4,0.1v0.5h-1.8L105.3,27.2L105.3,27.2z"/>
	<path vector-effect="non-scaling-stroke" d="M109.1,26.1c0-0.5,0.1-0.9,0.4-1.2s0.7-0.5,1.2-0.5c0.5,0,0.9,0.2,1.2,0.5
		s0.4,0.7,0.4,1.2v0.1c0,0.5-0.1,0.9-0.4,1.2c-0.3,0.3-0.7,0.5-1.2,0.5c-0.5,0-0.9-0.2-1.2-0.5S109.1,26.6,109.1,26.1
		C109.1,26.1,109.1,26.1,109.1,26.1z M110.1,26.1c0,0.3,0.1,0.6,0.2,0.7c0.1,0.2,0.3,0.3,0.5,0.3c0.2,0,0.4-0.1,0.5-0.3
		c0.1-0.2,0.2-0.4,0.2-0.7v-0.1c0-0.3-0.1-0.5-0.2-0.7c-0.1-0.2-0.3-0.3-0.5-0.3c-0.2,0-0.4,0.1-0.5,0.3
		C110.1,25.5,110.1,25.8,110.1,26.1L110.1,26.1L110.1,26.1z"/>
	<path vector-effect="non-scaling-stroke" d="M112.4,25v-0.5h1.3l0,0.4c0.1-0.1,0.2-0.3,0.4-0.3c0.1-0.1,0.3-0.1,0.5-0.1
		c0.4,0,0.8,0.2,1,0.5s0.4,0.8,0.4,1.3v0.1c0,0.5-0.1,0.9-0.4,1.2c-0.2,0.3-0.6,0.5-1,0.5c-0.2,0-0.3,0-0.5-0.1
		c-0.1-0.1-0.3-0.2-0.4-0.3v1l0.4,0.1v0.5h-1.8v-0.5l0.4-0.1V25L112.4,25z M115,26.1c0-0.3-0.1-0.6-0.2-0.8
		c-0.1-0.2-0.3-0.3-0.5-0.3c-0.1,0-0.3,0-0.4,0.1c-0.1,0.1-0.2,0.1-0.2,0.2v1.5c0.1,0.1,0.1,0.2,0.2,0.2c0.1,0.1,0.2,0.1,0.4,0.1
		c0.2,0,0.4-0.1,0.5-0.3C115,26.7,115,26.5,115,26.1L115,26.1z"/>
</g>
</svg>
